<?xml version="1.0" encoding="UTF-8"?>
<svg xmlns="http://www.w3.org/2000/svg" xmlns:xlink="http://www.w3.org/1999/xlink" viewBox="0 0 48 48" width="48px" height="48px">
<g id="surface54364663">
<path style=" stroke:none;fill-rule:nonzero;fill:rgb(80.000001%,80.000001%,80.000001%);fill-opacity:1;" d="M 24 24.238281 C 23.867188 24.238281 23.761719 24.132812 23.761719 24 C 23.761719 23.867188 23.867188 23.761719 24 23.761719 C 24.132812 23.761719 24.238281 23.867188 24.238281 24 C 24.238281 24.132812 24.132812 24.238281 24 24.238281 Z M 24 24.238281 "/>
<path style=" stroke:none;fill-rule:nonzero;fill:rgb(29.803923%,68.627453%,31.37255%);fill-opacity:1;" d="M 47.519531 15.265625 L 41.921875 18.34375 L 36.320312 23.664062 L 36.320312 41.921875 L 44.160156 41.921875 C 46.015625 41.921875 47.519531 40.414062 47.519531 38.558594 Z M 47.519531 15.265625 "/>
<path style=" stroke:none;fill-rule:nonzero;fill:rgb(11.764706%,53.333336%,89.803922%);fill-opacity:1;" d="M 0.480469 15.265625 L 4.527344 17.179688 L 11.679688 23.664062 L 11.679688 41.921875 L 3.839844 41.921875 C 1.984375 41.921875 0.480469 40.414062 0.480469 38.558594 Z M 0.480469 15.265625 "/>
<path style=" stroke:none;fill-rule:nonzero;fill:rgb(89.803922%,22.352941%,20.784314%);fill-opacity:1;" d="M 36.320312 9.664062 L 24 18.902344 L 11.679688 9.664062 L 10.558594 16.160156 L 11.679688 23.664062 L 24 32.902344 L 36.320312 23.664062 L 37.441406 16.160156 Z M 36.320312 9.664062 "/>
<path style=" stroke:none;fill-rule:nonzero;fill:rgb(77.64706%,15.686275%,15.686275%);fill-opacity:1;" d="M 0.480469 10.894531 L 0.480469 15.265625 L 11.679688 23.664062 L 11.679688 9.664062 L 8.179688 7.042969 C 7.347656 6.417969 6.335938 6.078125 5.292969 6.078125 C 2.636719 6.078125 0.480469 8.234375 0.480469 10.894531 Z M 0.480469 10.894531 "/>
<path style=" stroke:none;fill-rule:nonzero;fill:rgb(98.431373%,75.294119%,17.647059%);fill-opacity:1;" d="M 47.519531 10.894531 L 47.519531 15.265625 L 36.320312 23.664062 L 36.320312 9.664062 L 39.820312 7.042969 C 40.652344 6.417969 41.664062 6.078125 42.707031 6.078125 C 45.363281 6.078125 47.519531 8.234375 47.519531 10.894531 Z M 47.519531 10.894531 "/>
</g>
</svg>
